<svg width="841" height="999" viewBox="0 0 841 999" fill="none" xmlns="http://www.w3.org/2000/svg">
<path d="M66 711.814L341 216.814L418 360.814L158 833.314C158 833.314 118.507 796.415 98.6528 768.396C83.634 747.2 66 711.814 66 711.814Z" fill="#00AFFF"/>
<path d="M483.791 666.052V590.64L420.091 532.249L357.207 590.64V666.052L419.152 612.186L483.791 666.052Z" fill="#00AFFF"/>
<path d="M416.5 997.314V846.314C416.5 846.314 487.474 813.797 526.883 787.249C561.224 764.115 608.914 717.314 608.914 717.314H772.603C772.603 717.314 699.487 821.359 640.001 873.433C564.402 939.611 416.5 997.314 416.5 997.314Z" fill="#00AFFF"/>
<path d="M839.303 111.238L456.858 0.813965L548.429 167.797C548.429 167.797 701.946 210.889 704.639 218.969C707.333 227.049 704.639 455.977 704.639 455.977L806.984 636.426C806.984 636.426 819.561 595.669 825.836 569.094C832.237 541.992 836.61 517.922 839.303 499.069C841.996 480.216 839.303 111.238 839.303 111.238Z" fill="#00AFFF"/>
<path d="M419.152 531.388L420.091 532.249M420.091 532.249L483.791 590.64V666.052L419.152 612.186L357.207 666.052V590.64L420.091 532.249ZM341 216.814L66 711.814C66 711.814 83.634 747.2 98.6528 768.396C118.507 796.415 158 833.314 158 833.314L418 360.814L341 216.814ZM416.5 846.314V997.314C416.5 997.314 564.402 939.611 640.001 873.433C699.487 821.359 772.603 717.314 772.603 717.314H608.914C608.914 717.314 561.224 764.115 526.883 787.249C487.474 813.797 416.5 846.314 416.5 846.314ZM456.858 0.813965L839.303 111.238C839.303 111.238 841.996 480.216 839.303 499.069C836.61 517.922 832.237 541.992 825.836 569.094C819.561 595.669 806.984 636.426 806.984 636.426L704.639 455.977C704.639 455.977 707.332 227.049 704.639 218.969C701.946 210.889 548.429 167.797 548.429 167.797L456.858 0.813965Z" stroke="#00AFFF"/>
<path d="M772.718 716.314L384.142 0.813965L1.69698 108.545C1.69698 108.545 -0.99623 469.443 1.69698 496.376C4.3902 523.308 11.9745 559.461 23.2432 598.72C35.6398 641.908 65.5 710.814 65.5 710.814L149.5 558.814C149.5 558.814 140.28 542.161 136.361 480.216C132.441 418.271 136.361 216.276 136.361 216.276L311.423 159.717L609 716.314H772.718Z" fill="#002E43"/>
<path d="M158.5 833.814L226.5 710.314C226.5 710.314 279.357 768.143 319.503 795.329C354.186 818.815 415.5 846.314 415.5 846.314V997.314C415.5 997.314 319.58 958.023 265.638 921.912C221.545 892.395 158.5 833.814 158.5 833.814Z" fill="#002E43"/>
<path d="M772.718 716.314L384.142 0.813965L1.69698 108.545C1.69698 108.545 -0.99623 469.443 1.69698 496.376C4.3902 523.308 11.9745 559.461 23.2432 598.72C35.6398 641.908 65.5 710.814 65.5 710.814L149.5 558.814C149.5 558.814 140.28 542.161 136.361 480.216C132.441 418.271 136.361 216.276 136.361 216.276L311.423 159.717L609 716.314H772.718Z" stroke="#002E43"/>
<path d="M158.5 833.814L226.5 710.314C226.5 710.314 279.357 768.143 319.503 795.329C354.186 818.815 415.5 846.314 415.5 846.314V997.314C415.5 997.314 319.58 958.023 265.638 921.912C221.545 892.395 158.5 833.814 158.5 833.814Z" stroke="#002E43"/>
<path d="M350.5 198.314L424.5 351.893L260.5 647.814L199.5 614.814L138.5 581.314L350.5 198.314Z" fill="url(#paint0_linear_36_33)"/>
<defs>
<linearGradient id="paint0_linear_36_33" x1="232" y1="540.314" x2="451.659" y2="403.237" gradientUnits="userSpaceOnUse">
<stop stop-color="#00AFFF"/>
<stop offset="0.971922" stop-color="#002E43"/>
</linearGradient>
</defs>
</svg>
